<?xml version="1.0" encoding="utf-8"?>
<!-- Generator: Adobe Illustrator 27.5.0, SVG Export Plug-In . SVG Version: 6.00 Build 0)  -->
<svg version="1.1" id="Layer_2_00000039127632130090394740000012509340515209932448_"
	 xmlns="http://www.w3.org/2000/svg" xmlns:xlink="http://www.w3.org/1999/xlink" x="0px" y="0px" viewBox="0 0 383 76.4"
	 style="enable-background:new 0 0 383 76.4;" xml:space="preserve">
<style type="text/css">
	.st0{fill:#713F12;}
</style>
<g>
	<path class="st0" d="M11.5,29.8l0.9-0.6c5.8,0.2,8.7,1.9,8.7,5c0,2.3-0.6,3.4-1.9,3.4C17.8,37.6,15.2,35,11.5,29.8z M13.4,57.7
		c1.6-1.4,3.9-3.9,6.8-7.4l5.3-8.7h0.9l-6.5,19.2c-1,4.1-1.9,6.2-2.5,6.2c-0.6,0-1.5-1.3-2.8-4c-0.6-1.6-1.1-3-1.5-4L13.4,57.7z
		 M19.3,9.4l0.6-0.3c6.2,0,9.3,1.5,9.3,4.6c0,2.5-0.8,3.7-2.5,3.7C25.9,17.5,23.4,14.8,19.3,9.4z M25.8,46.2
		c9.5-8.2,15.1-13.8,16.7-16.7c-2.1,0-5.3,0.7-9.6,2.2c-1.7-0.6-3.2-1.4-4.6-2.5l0.3-0.6c1.9,0,5.5-0.5,10.8-1.5
		c2.9-0.6,5.2-1.1,6.8-1.5c-0.2-1-0.3-2.3-0.3-3.7l-0.3-0.9c0-3.5-0.3-6-0.9-7.4c-3.5,0.8-5.9,1.3-7.1,1.5v-0.6
		c8.9-5,13.9-8.9,15.2-11.8c5,1.2,7.4,2.5,7.4,3.7c0,0.4-1.7,1.2-5,2.5L48,11.9v0.6c1.4,0.8,2.2,1.5,2.2,2.2c0,0.2-0.2,0.9-0.6,2.2
		c0,0.2,0,1,0,2.5c0,2.5,0,4.2,0,5.3c1.4-0.2,4.3-0.8,8.7-1.9c3.1-0.6,5.3-1,6.5-1.2c2.1,0.2,3.8,0.9,5.3,2.2l0.3,0.3l-3.1,1.5
		l-16.1,2.2c4.5,3.9,8.8,6.5,12.7,7.7c7,1.9,11.7,3.1,13.9,3.7v0.9c-6.4,1.4-10.7,2.2-13,2.2c-1.9,0-4.3-1.4-7.4-4.3
		c-0.6-0.6-2.4-2.3-5.3-5c-0.8-0.8-1.7-1.8-2.5-2.8l-0.3,8.7c0,1.7-0.4,3.1-1.2,4.3c-0.4,0.6-0.8,0.9-1.2,0.9c-0.8,0-1.2-1.6-1.2-5
		c0-0.4,0.1-1.1,0.3-2.2c0-1.2,0-2.3,0-3.1c0-0.4,0-1.2,0-2.5c-0.6,0.4-1.5,1.4-2.8,3.1c-5.6,6.2-11,10.2-16.4,12.1L25.8,46.2z
		 M29.8,48.4l0.6-0.3c0.8,0,1.5,0.1,2.2,0.3c0.4,0,1,0,1.9,0c1.6,0,4.8-0.5,9.6-1.5c2.3-0.6,4.7-1.1,7.4-1.5c2.1-0.4,5.1-0.9,9-1.5
		c1.9,0,3.5,0.6,5,1.9c2.3,1.4,3.4,2.5,3.4,3.1c0,0.2-0.2,0.6-0.6,1.2C66.7,52,66,55.6,66,60.8c0,3.3-0.7,6.1-2.2,8.4
		c-1.4,2.9-3,4.3-4.6,4.3c-0.8,0-1.4-1-1.9-3.1c-0.6-1.9-1.5-3.3-2.8-4.3h-0.9c-6.2,0.6-9.6,1-10.2,1.2c-1.4,0.2-2.6,0.3-3.4,0.3
		c-0.4,0-1.2-0.2-2.5-0.6c-0.2,1-0.5,1.9-0.9,2.5c-0.4,0.6-0.7,0.9-0.9,0.9c-1.2,0-2-2.6-2.2-7.7C32.9,58.9,31.6,54.2,29.8,48.4z
		 M34.7,17.8l0.3-0.3c4.5,1,6.8,2.5,6.8,4.3c0,2.1-0.5,3.1-1.5,3.1c-0.8,0-1.9-0.8-3.1-2.5C36,20.8,35.2,19.2,34.7,17.8z M37.5,65.4
		c0.4,0,0.8,0,1.2,0c0.4,0,1.1-0.1,2.2-0.3c2.3-0.4,3.7-0.6,4.3-0.6v-5.9c-0.8,0.2-1.7,0.3-2.5,0.3c-0.8,0-1.9-0.6-3.1-1.9v-0.6
		c1.2-0.2,2.9-0.6,5-1.2V49c-0.6,0-1.5,0.2-2.8,0.6c-3.3,0.6-5.4,1-6.2,1.2C36.5,57.3,37.1,62.1,37.5,65.4z M48.7,63.9
		c1.6-0.4,2.7-0.6,3.1-0.6c1-0.2,1.9-0.3,2.5-0.3c1.4,0,2.9,0.9,4.3,2.8h0.6c1.2-2.1,1.9-6.8,1.9-14.2c0-3.1-1-4.6-3.1-4.6
		c-0.8,0-3.4,0.3-7.7,0.9c-0.6,0.8-0.9,2.2-0.9,4c0,0.6,0,1.3,0,2.2c0.4,0,1-0.1,1.9-0.3c0.6-0.2,1.2-0.3,1.9-0.3
		c1.4,0,2.2,0.5,2.2,1.5c0,1.2-2.1,2.3-6.2,3.1C49,60.1,48.9,62,48.7,63.9z M52.1,21.2c3.3-3.5,5-5.9,5-7.1c0-0.4-0.1-1-0.3-1.9
		l0.6-0.3c4.7,1,7.1,2.2,7.1,3.4c0,0.2-0.7,0.7-2.2,1.5l-9.6,4.6L52.1,21.2z"/>
	<path class="st0" d="M104.4,50v-0.6l7.7-7.4l0.9-1.2c4.7-5,8.4-10.6,10.8-17l-0.3-1.2l0.3-0.3c2.1-0.2,4,0.7,5.9,2.8
		c-0.2,0.6-1.2,2.2-3.1,4.6l-6.2,8v0.3c0,0.4,0.5,1.2,1.5,2.5c0.6,0.6,0.9,1.8,0.9,3.4c0,14.7-1.2,23.3-3.7,26h-0.9
		c-1-2.3-1.5-4.2-1.5-5.9c0-0.2,0.6-2.6,1.9-7.1c0.8-2.9,1.2-6.8,1.2-11.8c0-2.7-0.3-4.4-0.9-5.3h-0.3c-2.5,2.5-5.1,4.7-7.7,6.7
		C108.3,48.4,106.1,49.5,104.4,50z M112.5,25.8v-0.3c8.7-8.7,13-14.9,13-18.6c0-0.2,0-0.5,0-0.9l0.3-0.3c2.5,0.4,4.5,1.5,6.2,3.4
		c0.2,0.2,0.3,0.7,0.3,1.5c-1.2,0.8-3.3,2.6-6.2,5.3l-7.7,6.8C116.1,24.6,114.1,25.6,112.5,25.8z M126.1,33.9v-0.6l0.3-0.3h1.9
		l14.5-2.8l21.4-5.3c2.5-0.6,4.2-0.9,5.3-0.9c2.5,0,4.4,1,5.9,3.1c0.4,0.2,0.6,0.7,0.6,1.5c-1.2,0.4-3.4,0.7-6.5,0.9
		c-9.1,1-14.4,1.7-16.1,1.9c1,0.8,1.5,1.5,1.5,2.2c0,0.2-0.1,0.8-0.3,1.9c-0.2,0.6-0.3,1.1-0.3,1.5l0.3,4.3l0.3,6.2
		c0.6,7.4,0.9,11.7,0.9,12.7c0,6.6-2.2,10.5-6.5,11.8l-0.3-0.3l-1.5-3.1c-0.6-1-2.4-3.1-5.3-6.2v-0.6c0.8,0,1.9,0.1,3.1,0.3
		c1.2,0.2,2.7,0.4,4.3,0.6l0.6-0.6l0.3-1.2V46.2c0-0.6-0.1-2.5-0.3-5.6c-0.6-4.7-1.2-7.5-1.9-8.4c-3.5,0.4-8.4,1.5-14.5,3.4
		c-1.2,0.2-2.3,0.3-3.1,0.3C129.3,36,127.8,35.3,126.1,33.9z M140,16.8v-0.9l5.3-1.2l10.5-2.8c0.6-0.2,1.3-0.3,2.2-0.3
		c2.3,0,3.6,0.8,4,2.5c-0.8,0.8-2.2,1.4-4,1.9c-0.4,0.2-1.2,0.5-2.5,0.9c-3.9,1-7.2,1.5-9.9,1.5C143.9,18.4,142.1,17.9,140,16.8z"/>
	<path class="st0" d="M204.2,32.9c3.5-0.6,7-1.6,10.5-3.1c-0.2-7-1.5-11.3-4-13v-0.6c4.5,0.4,6.8,2.1,6.8,5c0,3.1,0.1,5.6,0.3,7.4
		l6.8-2.2V14.7c-0.4-3.3-1.2-6.2-2.5-8.7l0.6-0.3c0.2,0,0.5,0,0.9,0c2.3,0.2,4.3,1.2,6.2,3.1c-0.6,2.3-0.9,4.1-0.9,5.6
		c2.1-0.8,3.8-1.6,5.3-2.5c1.9,0.4,2.8,1,2.8,1.9c0,1.2-1.8,2.3-5.3,3.1c-0.6,0-1.8,0-3.4,0v8.4l7.1-2.5l0.3,0.9l-5.9,3.4
		c1.9,1,3.2,2,4,2.8v0.6c-3.5,3.5-5.7,6.2-6.5,8h6.8c3.1-2.9,4.5-6.2,4.3-9.9l0.3-0.3c0.2,0,0.4,0,0.6,0c1,0,2.1,0.4,3.1,1.2
		c1.6,1.9,2.5,2.9,2.5,3.1c0,0.8-0.9,1.8-2.8,2.8l-12.7,12.7l13.6-2.2c-0.2-0.4-0.9-1.5-2.2-3.4v-0.3c0.4-0.4,0.7-0.6,0.9-0.6h0.3
		c5.4,0.2,8,2.4,8,6.5c0,1.7-0.7,2.5-2.2,2.5c-0.6,0-1.9-1-3.7-3.1l-8,2.5v0.3c1,0.8,1.5,1.7,1.5,2.5v13.6c0,3.5-1,5.9-3.1,7.1
		c-0.6,0.6-1,0.9-1.2,0.9c-0.6,0-1.7-1.2-3.1-3.7c-1-1.4-2.2-2.6-3.4-3.4v-0.6l5,1.2c0.8-0.8,1.2-2.2,1.2-4v-9.3
		c0-1.2-0.5-2.3-1.5-3.1c-2.5,0.4-5,1.5-7.4,3.4c-0.4,0.2-0.8,0.3-1.2,0.3c-0.4,0-0.9-0.5-1.4-1.5c-0.5-1-0.8-1.9-0.8-2.5
		c0-0.8,1.8-2.2,5.3-4c1-0.6,3.2-2.7,6.5-6.2v-0.6c-1.2,0-2.8,0.2-4.6,0.6c-3.3,0.6-5.1,0.9-5.3,0.9c-1.2,0-1.9-0.7-1.9-2.2
		c0-1,1.1-2.3,3.4-3.7c1.6-1.2,3.1-3.6,4.3-7.1l-0.6-0.6c-7.6,3.1-13.4,5.8-17.3,8c-0.8,0.6-1.5,0.9-2.2,0.9c-1,0-2.2-0.7-3.4-2.2
		C204.5,34.3,204.2,33.6,204.2,32.9z M217.8,56.5h0.9c0.4,1,0.6,2.2,0.6,3.4c0,4.1-1.2,7.1-3.7,9c-1,0.8-2,1.2-2.8,1.2
		c-0.6,0-0.9-0.4-0.9-1.2C211.9,68.6,213.9,64.5,217.8,56.5z M238.8,2.3l1.2-0.3c1.6,0.4,3.6,1.1,5.9,2.2v0.6c0,0.4-0.4,1.8-1.2,4
		c-0.6,2.1-1,3.9-1.2,5.6c1.4,0,3.4-0.5,5.9-1.5c2.9-1.2,5.3-2.9,7.1-5c0.6,0.2,1.4,0.7,2.3,1.5c0.9,0.8,1.4,1.5,1.4,2.2
		c0,2.5-5.8,4.1-17.3,5c0,0.8,0,1.4,0,1.9c0,1.4,0,2.4,0,2.8c0,3.9,2.2,5.9,6.5,5.9c6,0,9.9-1.2,11.8-3.7c0.8-1.2,1.7-3.7,2.8-7.4
		h0.6c0,1,0.1,2.1,0.3,3.1l0.6,3.4c0.8,2.3,1.2,3.5,1.2,3.7c0,1.4-1.3,2.7-4,3.7c-2.7,1-6.1,1.5-10.2,1.5c-6.2,0-10.4-1.6-12.7-5
		c-0.4-0.8-0.6-2-0.6-3.4c0-0.4,0.1-3.5,0.3-9.3c0-1.9,0-3,0-3.4C239.4,8.5,239.2,5.8,238.8,2.3z M241,55.5v-0.3
		c1-0.2,1.8-0.3,2.2-0.3c1.9,0,4.1,0.6,6.8,1.9c3.5,1.9,5.3,4.6,5.3,8.4c0,1-0.3,1.5-0.9,1.5l-1.5-0.9l-2.5-2.2L241,55.5z"/>
	<path class="st0" d="M300.8,67v-0.6c0.6-0.2,3.5-0.8,8.7-1.9c8.9-1.9,14.4-4.6,16.7-8.4c-3.7-4.5-7.5-7.6-11.5-9.3v-0.9l0.3-0.3
		c0.8,0,1.5,0,2.2,0c2.3,0,3.9,0.6,5,1.9c3.5,3.7,5.5,5.8,5.9,6.2c2.5-5.2,3.8-9.1,4-11.8l-0.6-0.6c-1.9,0-4.3,0.2-7.4,0.6
		c-0.4,0.2-0.9,0.3-1.5,0.3c-3.5,0.4-7.9,1-13.3,1.9c-0.2,0-0.4,0-0.6,0c-2.7,0-4.7-1.3-6.2-4h9.9c0.2,0,0.6-0.1,1.2-0.3
		c0.2,0,1.6-0.1,4.3-0.3c1.9-0.2,5.7-0.6,11.5-1.2v-0.3c-0.4-0.4-0.6-0.7-0.6-0.9c-1.4-1.9-2.2-2.9-2.2-3.1c-0.6-0.8-1-1.6-1.2-2.5
		v-0.6c5.4,0.6,8,2.3,8,5c0,0.4-0.1,1-0.3,1.9c1.6,0,3.5-0.2,5.6-0.6c5.6-1,9.5-1.5,11.8-1.5c2.9,0,4.8,1.4,5.9,4.3
		c-0.8,0.6-1.7,0.9-2.5,0.9c-0.8,0-2.4-0.1-4.6-0.3c-1.2-0.2-2.6-0.3-4-0.3c-2.3,0-5.2,0.2-8.7,0.6l-0.6,0.6
		c1.4,1.2,2.2,2.3,2.2,3.1c0,0.8-2.3,4.9-6.8,12.1c8.5,6.2,19.9,10.7,34.4,13.6v0.6c-3.7,1.4-8,2.2-13,2.2c-3.9,0-7.6-1.3-11.1-4
		l-12.1-9.6c-5.4,5.4-13.7,8-25.1,8C303,67.3,301.8,67.2,300.8,67z M310.7,10l0.3-1.5c0.8,0.2,2.7,0.4,5.6,0.6l1.5-0.3h1.5l13.6-2.5
		c1-0.2,1.9-0.4,2.5-0.6c3.3-0.8,5.2-1.2,5.6-1.2c1.9,0,4.1,0.8,6.8,2.5c1.2,0.8,1.9,1.8,1.9,2.8c0,0.6-0.4,1.8-1.2,3.4
		c-0.8,1.4-1.4,2.7-1.9,3.7l-2.5,7.1c-1.2,2.3-2.7,3.7-4.3,4.3c-1.4-0.4-2.7-0.6-3.7-0.6c-4.1,0-8.5,0.6-13,1.9
		c-1.9,0.6-3,0.9-3.4,0.9c-0.2,0-0.8-0.2-1.9-0.6l-5-14.9L310.7,10z M319.7,17.8h1.2l11.5-2.8c0.6-0.2,1.2-0.3,1.9-0.3
		c1.9,0,2.8,0.5,2.8,1.5c0,2.7-5.7,4-17,4c0.2,1,0.3,1.7,0.3,1.9c0.4,2.7,0.7,4.2,0.9,4.6h2.2l11.1-2.2h2.2c2.1-0.6,3.1-1,3.1-1.2
		c1.2-2.1,1.9-6.2,1.9-12.4c0-1.9-1-2.8-3.1-2.8c-0.6,0-4.3,0.5-11.1,1.5l-9.3,1.9c0,0.4,0,0.7,0,0.9
		C318.1,13.3,318.6,15.1,319.7,17.8z"/>
</g>
</svg>
