<?xml version="1.0" encoding="utf-8"?>
<!-- Generator: Adobe Illustrator 27.5.0, SVG Export Plug-In . SVG Version: 6.00 Build 0)  -->
<svg version="1.1" id="Layer_2_00000039127632130090394740000012509340515209932448_"
	 xmlns="http://www.w3.org/2000/svg" xmlns:xlink="http://www.w3.org/1999/xlink" x="0px" y="0px" viewBox="0 0 383 76.4"
	 style="enable-background:new 0 0 383 76.4;" xml:space="preserve">
<style type="text/css">
	.st0{enable-background:new    ;}
	.st1{fill:#713F12;}
</style>
<g id="Layer_1-2">
	<g class="st0">
		<path class="st1" d="M34,26.5c1.2,0.2,2.1,1.5,2.9,3.8c0.2,1.6,0,2.5-0.6,2.9c-0.4,0.4-1.1,0.4-2,0c-2.9-1.6-5.2-3.6-7.2-6.1
			c-0.8-0.8-0.6-1.2,0.6-1.2C30.3,26,32.3,26.2,34,26.5z M44.3,36.4c-3.6,13.2-6.5,23-8.6,29.5c0,0.8-0.5,1-1.5,0.6
			c-1.7-0.6-3.2-1.8-4.6-3.8c-0.6-0.8-1-1.7-1.2-2.9c0-1.6,0.5-1.8,1.5-0.9c0.8,0.2,1.4-0.1,1.7-0.9c4-6.2,8.1-13.7,11.9-22.4
			C44.5,34.7,44.7,35,44.3,36.4z M41.1,9.9c0.8,0.6,1.5,2,2,4.4c0,1.7-0.9,2.3-2.6,1.7c-1.6-0.4-4.2-2.5-8.1-6.4
			c-0.6-0.6-0.4-0.9,0.6-0.9h2.7C38.4,8.8,40.2,9.2,41.1,9.9z M71.7,5.3c0.8,0.2,1.6,1.2,2.3,2.9c0.4,1.2,0.2,1.8-0.6,2
			c-2.3,1.2-5,2.2-8.3,3.2c1.6,1.2,2.3,2.2,2.3,3.2v9.7c3.8-4.9,6-8.1,6.6-9.4c0.2-0.6,0.2-1.2,0-1.7c-0.2-1.6,0.2-2,1.2-1.5
			c0.6,0.4,1.4,0.8,2.3,1.2c1.2,0.6,1.8,1.5,2,2.6c0.4,1.2,0.1,1.9-0.9,2.3c-3.4,2.7-7.2,5.1-11.1,7.3v0.9c3.4-0.4,6.9-0.9,10.2-1.5
			c0.8-0.8,1.3-1.3,1.5-1.5c0.8-0.8,3-0.4,6.6,1.2c1.2,0.6,1.6,1.3,1.2,2c-0.4,0.6-1,0.9-1.7,0.9s-1.7,0-2.9,0
			c-3.4,0.2-8.4,0.6-14.8,1.2c9.9,6.4,18.7,10.9,26.6,13.4c1,0.4,1,0.7,0,0.9c-4.6,0.8-8.2,1.2-10.8,1.2c-0.8,0-2.3-1.1-4.6-3.2
			c-3-2.7-6.9-6.2-11.3-10.5V43c0,1.4-0.4,2.4-1.2,3.2l1.5-0.3c4.6-1.2,7.2-1.7,7.8-1.7c0.4-0.4,0.9-0.5,1.5-0.3
			c2.5,1.6,4.3,2.8,5.4,3.8c0.6,0.6,0.5,1.2-0.3,1.7c-0.9,0.5-1.6,2.6-2.6,6.2c-0.8,3.1-1.7,6.3-2.9,9.7c-0.8,1.2-1.5,1.5-2,0.9
			c-0.6-0.6-1.3-1.4-2-2.3c-1-0.4-5.1,0.1-12.5,1.5l-0.3,1.7c-0.4,1-1,1.1-1.7,0.3c-0.8-0.8-1.6-2.1-2.3-4.1
			c-0.6-3.9-1.3-7.8-2-11.6c-0.2-0.6-0.5-1.3-0.9-2c-0.4-0.4-0.7-0.9-0.9-1.5c-0.4-1.2,0.1-1.6,1.5-1.2c1,0.4,1.8,0.6,2.6,0.6
			l8.9-1.2c-0.8-0.4-1.3-1.6-1.5-3.5v-8C57.6,41.8,51.5,46.7,45.2,50c-1,0.2-1.2,0-0.6-0.6c5.9-4.9,11.2-10.7,15.9-17.5
			c-3.2,0.8-5.9,1.5-8.1,2c-1.9,0.6-3,0.9-3.4,0.9c-1-0.2-1.7-0.6-2.3-1.2c-0.6-0.4-0.5-0.7,0.3-0.9c2.3-0.6,4.9-1.3,8.1-2
			c3.2-1,6.1-1.6,8.6-2V17.4c-0.2-1.4-0.6-2.3-1.2-2.9c-3.4,1.2-6.9,2.3-10.2,3.5c-1.2,0.2-1.4-0.1-0.6-0.9
			c6.5-3.5,11.7-6.9,15.9-10.3c0.6-0.4,0.8-0.9,0.6-1.5c-1-1-0.8-1.5,0.6-1.5C69.2,4.3,70.1,4.7,71.7,5.3z M56.8,21.9
			c1.7,1.4,2.5,3,2.3,4.9c-0.4,1.6-1.2,2-2.3,1.5c-0.8-0.6-1.6-1.5-2.3-2.6c-0.6-1-1.3-2.3-2-4.1c-0.4-1-0.1-1.3,0.9-0.9
			C54.7,20.9,55.9,21.3,56.8,21.9z M58.2,55.1h1.2l4.3-1.2L63.4,50c-0.4-1.2-1-1.6-1.7-1.5l-4.8,0.9L58.2,55.1z M58.5,56.8l1.2,6.7
			c1-0.2,2.3-0.5,4-0.9v-6.1c-0.8,0.2-1.6,0.3-2.3,0.3H58.5z M66,48.1c0.8,0.6,1.2,1.3,1.2,2v2.9c1-0.2,1.7-0.5,2.3-0.9
			c0.4-0.4,1.5-0.3,3.1,0.3c0.8,0.4,1.2,0.8,1.2,1.2c0,0.8-0.6,1.3-1.7,1.5c-1.9,0.4-3.5,0.7-4.8,0.9v5.8c1.7-0.6,3-1,3.7-1.2
			c0.8,0,1.6,0.2,2.6,0.6l2.2-13.2c0.2-1.2-0.2-1.6-1.2-1.5L66,48.1z"/>
		<path class="st1" d="M134.7,25.7c0.8,1.6,0.6,2.6-0.6,3.2c-1.6,2.3-3,4.5-4.3,6.4c0.6,1,0.9,1.7,0.9,2.3c0,4.9,0,9.8,0,14.6
			c0,7,0,11.7,0,14.3c-1,3.3-2.2,4-3.7,2c-1.2-1.9-1.9-3.8-2.3-5.5c0.8-1.6,1.4-4.9,1.7-10.3c0.4-5,0.6-9.5,0.6-13.1
			c-3.4,4.5-8.1,9-14,13.4c-0.8,0-0.9-0.3-0.3-0.9c3.4-3.7,6.4-7.5,8.9-11.4c2.5-3.9,5-9,7.8-15.1c0-1-0.2-1.8-0.6-2.6
			c-0.2-1,0.2-1.4,1.2-1.2C132.7,22.7,134.3,23.9,134.7,25.7z M134.4,9.4c1,1.2,0.9,2.2-0.3,3.2c-2.5,2.1-4.9,4-7.5,5.5
			c-2.3,1.6-5.1,3.3-8.6,5.2c-0.8,0-0.9-0.4-0.3-1.2c3.4-2.9,6.9-7,10.2-12.2c0.8-1,0.9-1.7,0.3-2.3c-0.8-1.6-0.4-2.2,1.2-2
			C131.8,6.5,133.5,7.8,134.4,9.4z M169.7,20.4c3,0.2,5.5,1.1,7.5,2.6c0.6,1.9-0.3,3-2.6,3.2c-4.4,0-9.2,0.4-14.5,1.2
			c1,1,1.6,2,2,3.2c0,10.4,0,20.7,0,31.2c0,2.5-1.1,5.2-3.1,8.3c-1,1.7-2,1.5-3.1-0.9c-1-1.6-2.1-2.9-3.4-4.1
			c-1.7-1.6-3.3-2.8-4.8-3.8c-0.4-0.8-0.2-1.1,0.6-0.9c2.5,0.8,4.8,1.3,7.2,1.5c0.8,0,1.3-0.4,1.5-1.2c0.2-1.2,0.3-2.9,0.3-5.2V33.4
			c0-1.2-0.1-2.2-0.3-3.2c-0.6-1.4-1.5-2-2.6-2c-6.1,1.4-10.4,2.4-13.1,3.2H140c-1-0.4-1.9-0.9-2.9-1.5c-1-0.6-0.5-1,1.5-1.2
			c7.9-1.7,13.9-3.2,18.2-4.4c3-0.8,6.4-1.6,10-2.3C167.9,21,168.9,20.4,169.7,20.4z M166.5,8.8c1.7,1.4,1.6,2.4-0.6,3.2
			c-5.7,0.4-11.3,1.4-17.1,2.9c-1-0.4-1.9-0.8-2.9-1.2c-1.2-0.8-0.8-1.3,1.2-1.5c4.2-1,8.2-2.2,11.9-3.8c0.8-1,1.6-1.4,2.3-1.2
			C163.3,7.5,165.1,8,166.5,8.8z"/>
		<path class="st1" d="M223.4,7c1,0.6,1.1,1.5,0.3,2.6c-0.2,1.4-0.4,3.2-0.6,5.5c1.6-0.4,3-1,4.6-1.7c0.4-0.6,0.9-0.8,1.5-0.6
			c0.8,0.2,1.6,0.5,2.6,0.9c0.8,0.8,0.8,1.5,0,2c-2.9,0.8-5.7,1.3-8.6,1.5c-0.4,3.7-0.7,6.7-0.9,9.1c2.7-1,5.1-1.9,7.5-2.9
			c1-0.2,1.3,0.1,0.9,0.9l-1.5,0.9c1.6,1.4,2.5,2.5,2.9,3.5c0.2,0.8-0.1,1.6-0.9,2.3c-2.7,2.5-5.3,4.9-8.1,7.3l7.8,0.3
			c1.7-1.6,3.4-3.6,5.1-6.1c0.4-0.2,0.5-0.8,0.3-1.7c0.2-1,1-1.1,2.3-0.3c0.8,0.8,1.4,1.7,1.7,2.9c0.6,0.8,0.2,1.6-1.2,2.6
			c-4.4,4.1-9,8.1-13.7,11.6c4.2-0.8,9.1-1.9,14.8-3.5c-0.8-1.4-1.6-2.6-2.6-3.8c-0.4-0.6-0.2-0.9,0.6-0.9c4,1.2,6.6,2.3,7.8,3.5
			c1,1.2,1.6,2.5,1.7,4.1c-0.2,2.3-1.2,3-2.9,2c-1.2-1.2-2.2-2.3-3.1-3.5c-3.4,1.2-6.3,2.1-8.6,2.9c1.2,1,1.8,2,2,3.2
			c0,2.3,0,4.5,0,6.4c0,2.9,0,5.4,0,7.6c-0.2,2.1-1.1,4.3-2.6,6.4c-0.6,1-1.2,1.1-1.7,0.3c-0.8-1.4-1.9-2.7-3.4-4.1
			c-1.2-1-2.5-1.9-4-2.9c-0.8-0.8-0.7-1.2,0.3-1.2c1.7,0.4,3.2,0.5,4.6,0.3c1.6-0.6,2.3-2.3,2.3-5.2v-6.7c0-1.4-0.5-2.2-1.5-2.6
			c-4.9,1.6-8.3,2.7-10,3.5c-1.9-0.8-3.6-1.8-5.1-3.2c-0.6-0.8-0.5-1.3,0.3-1.5c1.4,0.4,3.6,0.3,6.9-0.3c3-2.3,5.9-5.1,8.6-8.5
			c-3.6,0.8-7.7,1.7-11.9,2.9c-0.8,0.2-1.3-0.7-1.5-2.6c-0.2-1-0.1-1.6,0.3-2c1.2-0.4,2.5-0.9,4-1.5c4.8-4.7,7.3-7.6,7.5-8.8
			c0-1,0-1.7,0-2.3c-6.1,3.5-12.4,6.9-19.1,10.3c-0.8,0.8-1.8,1-3.1,0.6c-1.4-0.6-2.7-1.5-4-2.6c-0.4-0.8-0.3-1.2,0.3-1.2
			c1.2,0,2.2,0,3.1,0c1.6-0.4,3.3-1,5.4-1.7c0-2.7-0.2-5.5-0.6-8.5c0-2.5-0.6-4.3-1.7-5.2c-1-1-0.5-1.5,1.5-1.5
			c2.9,0.8,4.5,1.7,4.8,2.9c0,1.7-0.3,5.4-0.9,11.1l5.1-2V10.2c-0.4-1.6-1-2.5-1.7-2.9c-1.2-1.2-0.9-1.8,0.9-2
			C219.7,5.3,221.4,5.9,223.4,7z M217.9,55.9c-0.4,3.7-1.5,6.9-3.1,9.7c-1.4,1.9-2.4,2.2-3.1,0.9c-1-2.3-0.9-4.3,0.3-5.8
			c2.3-1.7,4.1-3.6,5.4-5.5C217.9,54.7,218.1,55,217.9,55.9z M240.1,7c-0.4,1.9-0.8,4.9-1.2,8.8c2.3-0.6,4.5-1.5,6.6-2.6
			c0.6-0.6,1.5-0.9,2.6-0.9c0.4,0,1,0.1,1.7,0.3c1.2,0.2,1.7,0.5,1.7,0.9c0,1.4-0.6,2.1-1.7,2.3c-3.6,1-7.3,1.8-10.8,2.6
			c0,1.9,0,3.8,0,5.5c0,1.2,0.2,1.8,0.6,2c0.8,0.6,2,0.9,3.7,0.9c4.9,0,8.5-0.2,10.5-0.6c1.6-0.2,2.9-0.8,4-1.7
			c0.8-1.2,1.6-3.1,2.3-5.8c0.4-1,0.8-1.1,1.2-0.3c0,3.3,0.6,5.9,1.7,8c1,1.9,0.2,3.2-2.3,3.8c-2.9,0.6-5.7,0.9-8.6,0.9h-6.9
			c-2.3,0-4.2-0.4-5.7-1.2c-1-0.2-1.8-0.7-2.6-1.5c-1-0.6-1.6-1.6-2-2.9c-0.2-1.7-0.3-4.3-0.3-7.6c0-3.1,0-6.6,0-10.5
			c-2.3-2.9-2.3-4.2,0-3.8C238.2,4.3,239.9,5.5,240.1,7z M251.8,58.3c0.6,0.4,1,0.9,1.2,1.5c0.6,1.4,0.7,2.7,0.3,4.1
			c-0.2,1.2-1,1.6-2.3,1.2c-2.7-1.4-5.8-4.9-9.4-10.8c-0.4-0.8-0.2-1,0.6-0.6C246.2,55.6,249.5,57.1,251.8,58.3z"/>
		<path class="st1" d="M317.9,33.1c1.2,0.8,1.6,1.6,1.2,2.6c-0.4,1.4-0.8,2.8-1.2,4.4c3.4-0.6,7-1.3,10.5-2c0.8-0.2,1.5-0.6,2-1.2
			c0.6-0.6,1.3-0.9,2-0.9c2.7,0.2,4.8,0.8,6.3,1.7c1.2,0.6,1.6,1.4,1.5,2.3c-0.2,0.8-0.9,1.2-2,1.2c-5.1,0-10.6,0.4-16.5,1.2
			c1.6,1.7,2.7,3,3.4,3.8c0.6,1,0.4,1.8-0.6,2.6c-1.9,2.1-3.7,4.1-5.4,5.8c4.8,3.5,9.4,6.4,14,8.8c4,1.9,10.2,3.6,18.8,4.9
			c0.6,0.4,0.6,0.8,0,1.2c-4.6,1.4-9.4,2.3-14.5,2.9c-1.7,0-3.1-0.5-4.3-1.5c-4-3.5-9.4-8.3-16.2-14.3c-6.7,5.8-14.5,10.2-23.7,12.8
			c-0.8,0-1-0.3-0.6-0.9c8.1-3.9,15-8.9,21.1-14.8c-2.3-2.5-5.3-4.3-9.1-5.2c-1.4-0.6-1.7-1.2-1.2-1.7c0.4-0.2,1-0.3,1.7-0.3h0.6
			c1.4,0,2.8,0.5,4.3,1.5l5.4,4.1c1.4-1.4,2.7-3.2,4-5.5c0.6-1.7,0.4-2.9-0.6-3.5c-2.9,0-7.1,0.7-12.5,2c-5.5,1.4-8.4,2-8.6,2
			c-2.7-1.4-4-2.2-4-2.6c3.4-0.6,10.2-1.8,20.6-3.8c0-1.7-0.2-3.6-0.6-5.5c-1-0.6-1.7-1.4-2.3-2.3c-0.2-0.8,0.1-1.3,0.9-1.5
			c0.6,0,1.4,0.2,2.3,0.6C315.9,32.2,317,32.6,317.9,33.1z M329.6,5.9c1.7,1.2,2.1,2.2,1.2,3.2c-0.4,0.6-0.6,1.2-0.6,1.7
			c-0.6,10.2-1,16.3-1.2,18.6c-0.8,2.1-1.5,3.6-2,4.4c-1.2,0.2-1.8,0.1-2-0.3l-2.3-4.4c-0.6-0.4-1.1-0.6-1.5-0.6l-12.2,2l-0.9,1.5
			c-0.2,0.6-0.9,0.3-2-0.9c-1.2-1.2-1.7-2.1-1.7-2.9l-1.2-16.9L302,8.7V8.2c0-0.8,0.4-0.9,1.2-0.3l3.7,0.3c5.3-1,11.2-2.4,17.9-4.4
			C326.1,4.2,327.8,4.9,329.6,5.9z M307.1,10.4l0.3,0.9l0.6,6.4c2.1-0.4,5.2-1.4,9.4-2.9c0.6-0.6,1.3-0.8,2-0.6
			c3.6,1.2,4.2,2.2,1.7,3.2c-5.7,1.6-9.4,2.3-11.1,2.3l-2-0.9l0.9,9.4l12.5-2.9h1.5c0.4,0.2,0.9,0.4,1.5,0.6
			c0-6.4,0.1-10.4,0.3-11.9V7.9C324,7.3,323.4,7,323,7L307.1,10.4z"/>
	</g>
</g>
</svg>
